<svg version="1.1" xmlns="http://www.w3.org/2000/svg" xmlns:xlink="http://www.w3.org/1999/xlink" width="645.44939" height="509.36233" viewBox="0,0,645.44939,509.36233"><g transform="translate(82.9829,77.00028)"><g data-paper-data="{&quot;isPaintingLayer&quot;:true}" fill="#000000" fill-rule="nonzero" stroke="none" stroke-width="0.5" stroke-linecap="butt" stroke-linejoin="miter" stroke-miterlimit="10" stroke-dasharray="" stroke-dashoffset="0" style="mix-blend-mode: normal"><path d="M38.35831,-37.88899c0.87722,-0.93341 1.68572,-1.94967 2.73391,-2.67697c3.60904,-2.50417 4.27802,-1.05974 8.24751,-3.14849c1.47493,-0.77611 2.55072,-2.17699 4,-3c3.9095,-2.22011 8.56787,-3.03538 12.79019,-4.32035c5.23061,-1.59182 10.85728,-3.35025 15.90655,-5.52416c1.61732,-0.69632 3.07296,-1.76399 4.73907,-2.33377c3.45933,-1.18304 7.81618,-1.01448 11.45298,-1.46779c4.70769,-0.58679 9.31837,-2.10879 13.99868,-2.62455c4.59425,-0.50628 9.65742,-0.17007 14.29553,-0.32923c4.8933,-0.70946 9.83043,-2.18269 14.73092,-2.67353c1.63876,-0.16414 3.30386,0.18721 4.94089,0.00656c4.07455,-0.44962 7.98852,-1.69216 12.15011,-2.0139c0.90769,-0.07017 7.44439,0.0731 7.65268,0.04622c2.51772,-0.32485 4.51325,-2.48958 7,-3c4.64054,-0.95251 10.74943,-0.05106 15.50266,-0.05106c11,0 22,0 33,0c22.96167,0 45.95023,-0.86414 68.86175,-1.99617c10.16836,-0.50241 20.07966,-3.96831 30.13825,-4.00383c12.84221,0 25.54176,-0.04496 38.30094,1.00895c3.77071,0.31146 6.23676,-0.36259 10.04646,0.02303c4.44613,0.45004 8.5668,2.45368 12.95806,2.98675c1.6163,0.19621 3.26046,-0.12766 4.88448,-0.01151c5.037,0.36026 9.56401,1.88074 14.38862,3.06064c3.03807,0.74299 6.22304,0.71461 9.28466,1.35371c0.10107,0.0211 9.55948,2.60254 9.7682,2.65948c13.1318,3.27445 26.61673,4.97097 39.50254,9.18559c7.14982,2.33852 14.25154,6.0511 20.86155,9.54233c1.38516,0.73161 2.49454,1.97631 3.95932,2.5316c1.64352,0.62304 3.61057,0.16351 5.18912,0.9365c1.42512,0.69786 2.2204,2.27563 3.44102,3.28956c2.10452,1.74818 5.16562,2.07846 7.2457,3.85565c1.38372,1.18223 1.9563,3.07916 3.10268,4.49273c0.95973,1.18342 2.12885,2.18043 3.19327,3.27064c0.22513,0.63716 2.21142,6.15786 2.34109,6.91387c0.30678,1.78862 0.02095,3.75133 0.81576,5.38276c2.77005,5.68577 5.21491,11.27749 6.18751,17.638c1.20599,7.88677 2.00586,16.04267 3.58931,23.87892c0.3351,1.65836 1.19209,3.18837 1.47614,4.85623c0.2767,1.62469 -0.11608,3.32153 0.19231,4.94051c0.93728,4.92049 4.02472,9.31586 4.74708,14.35729c0.24245,1.6921 -0.12298,3.4243 0.01459,5.12814c0.24111,2.98615 1.05207,5.89866 1.572,8.84907c1.2149,4.24241 2.52344,8.58074 3.39507,12.9105c0.532,2.64267 0.3755,5.24375 0.97806,7.89506c0.71289,3.13679 2.41968,5.99092 3.13301,9.12761c1.82217,8.01255 0.8281,16.63739 2.47272,24.59719c0.32608,1.57821 1.21227,2.9943 1.63922,4.54826c1.32881,4.83639 1.59091,9.95025 2.78395,14.80717c0.79185,3.22366 2.23409,6.2603 3.08021,9.47015c1.27535,4.83821 1.96769,9.69697 3.41315,14.5061c1.71136,5.70826 4.32049,11.26787 5.81742,17.01324c3.12151,11.98069 2.94274,24.56154 3.77693,36.76238c0.46154,6.75041 3.0451,12.82436 3.9257,19.40005c1.08632,8.11179 0.02212,17.13894 0.02212,25.33183c0,11.673 0.55251,23.49735 -0.00483,35.15534c-0.12833,2.68435 -0.83301,5.31777 -1,8c-0.28927,4.64636 0.22235,9.34899 0,14c-0.35489,7.42337 -2.47253,14.72115 -3.002,22.12144c-0.12064,1.68618 0.16096,3.3912 -0.02523,5.0714c-0.21025,1.89735 -0.50034,3.81652 -1.15824,5.60853c-0.38678,1.0535 -1.64746,1.67833 -1.91697,2.76775c-0.40554,1.6393 -0.01401,3.37741 -0.02102,5.06611c-3.78729,5.27082 -8.6142,11.33412 -13.89742,15.22846c-4.03474,2.97407 -8.95124,4.74478 -13.24947,7.16038c-1.45777,0.81926 -2.56391,2.17653 -4.01465,3.00817c-1.18728,0.68061 -2.59995,0.88066 -3.82684,1.48696c-1.62911,0.80508 -2.96668,2.24272 -4.71598,2.73474c-1.63166,0.45893 -3.41413,-0.26365 -5.08488,0.02191c-2.56587,0.43856 -4.51948,2.61964 -6.93423,3.59175c-3.20917,1.29191 -6.71961,1.65019 -10.09352,2.41473c-3.10395,0.70336 -6.20607,1.49887 -9.17156,2.65435c-1.66114,0.64725 -3.09527,1.84891 -4.80877,2.34109c-3.49552,1.00405 -7.45618,-0.16055 -11.11733,0.77956c-3.24562,0.80817 -6.59505,1.13072 -9.866,1.82934c-1.66111,0.35478 -3.19763,1.20586 -4.87132,1.49551c-3.26246,0.5646 -6.62648,0.42257 -9.8769,1.05278c-8.15317,1.5808 -16.4769,4.08395 -24.7476,4.89792c-0.80638,0.07936 -9.11617,-0.03064 -10.10617,0.02436c-9.97663,0.55427 -19.88401,2.48238 -29.87578,2.98485c-4.0037,0.20134 -7.86886,-0.16949 -11.84943,0.45293c-10.99667,1.6918 -22.02293,4.08424 -33.15996,4.54748c-7.70197,0.32036 -15.51717,-0.36559 -23.20603,0.37752c-14.60811,1.41184 -29.08666,4.21592 -43.73246,5.26205c-11.35622,0.80755 -22.58228,3.04475 -33.89194,4.34759c-21.32684,2.45679 -42.80223,4.015 -64.27347,4.015c-5.89361,0 -11.94209,-0.38323 -17.82278,-0.00629c-4.68938,0.30058 -9.31117,1.66678 -14,2c-13.00904,0.92452 -26.414,-0.07268 -39.35445,-1c-4.68485,-0.33572 -9.49965,0.48589 -14.17211,-0.02589c-4.722,-0.5172 -9.52794,-1.10446 -14.19913,-2.02873c-5.77443,-1.44257 -11.87298,-4.18072 -17.75699,-4.95783c-1.53811,-0.20314 -3.19318,0.35862 -4.65125,-0.17157c-1.89226,-0.68808 -2.62774,-3.15272 -4.35762,-4.18307c-2.85472,-1.70033 -7.0028,-1.49005 -9.91742,-2.95113c-0.94934,-0.4759 -1.4608,-1.55433 -2.30259,-2.20172c-2.08081,-1.60028 -4.04878,-3.34241 -6.05063,-5.04042c-0.9786,-0.83006 -2.27966,-1.25399 -3.18279,-2.16559c-0.72723,-0.73404 -3.37746,-5.17098 -4.16559,-6.18279c-0.72578,-0.93178 -1.91694,-1.54018 -2.37634,-2.62826c-0.38897,-0.92125 0.37139,-2.07152 0,-3c-0.35015,-0.87538 -1.6505,-1.12436 -2,-2c-0.39131,-0.98037 -0.04134,-2.11076 -0.06201,-3.16614c-2.52082,-3.2192 -3.27485,-5.86242 -5.2347,-9.27736c-1.5168,-2.64296 -3.91682,-4.86815 -4.78632,-7.78875c-0.35845,-1.204 0.46643,-2.57147 0.08303,-3.76775c-0.24917,-0.77745 -1.41351,-0.93261 -1.81693,-1.64238c-0.68145,-1.19896 -1.07865,-2.55999 -1.34109,-3.91387c-0.17928,-0.92488 0.28985,-1.91922 0.0346,-2.82607c-0.77196,-2.74254 -2.75568,-4.99832 -3.87658,-7.61767c-0.82073,-1.91791 -1.08054,-4.05378 -1.97378,-5.93901c-0.69877,-1.47478 -1.75965,-2.7637 -2.41886,-4.25658c-0.62871,-1.42381 -0.69417,-3.07222 -1.42428,-4.44679c-0.44227,-0.83264 -1.52243,-1.18709 -2,-2c-1.82081,-3.09937 -1.79127,-7.07976 -3.15966,-10.30294c-0.904,-2.12933 -2.59529,-3.83016 -3.87599,-5.75657c-0.75695,-1.56014 -1.78136,-3.01688 -2.27085,-4.68043c-0.24658,-0.838 0.45215,-1.80836 0.12342,-2.61767c-0.34861,-0.85828 -1.63997,-1.08899 -1.97911,-1.95105c-0.46982,-1.19422 0.00725,-2.592 -0.29851,-3.83836c-0.63609,-2.5929 -2.59803,-4.67317 -3.67993,-7.11393c-1.26454,-2.8528 -0.96729,-6.20867 -2.05705,-9.1327c-1.07023,-2.87162 -3.85829,-4.83601 -5.15396,-7.61321c-2.09927,-4.49967 -2.83048,-9.93528 -4.36756,-14.63397c-1.52066,-4.64848 -4.72,-8.2938 -6.50164,-12.81358c-0.95815,-2.43069 -0.9241,-5.17356 -1.85006,-7.6167c-0.60142,-1.58684 -1.81038,-2.90712 -2.35057,-4.51583c-0.53232,-1.58527 -0.31485,-3.3563 -0.82735,-4.94809c-0.45657,-1.41811 -1.36347,-2.64933 -2.0452,-3.97399c-6.00217,-11.93575 -7.94594,-25.58436 -12.96769,-37.95484c-2.48275,-6.11595 -5.10367,-12.4567 -7.13007,-18.78445c-2.17696,-6.79785 -1.19229,-13.40775 -2.0883,-20.26622c-1.07169,-8.20322 -4.5958,-15.78557 -7.83884,-23.28082c-0.20971,-21.25138 0.29192,-42.60424 6.03141,-63.16858c0.67014,-2.40109 1.07645,-6.55054 1.81606,-8.69736c0.53842,-1.56286 1.68705,-2.86917 2.22284,-4.43294c1.58324,-4.62088 0.78707,-9.93349 3.01905,-14.44047c0.76632,-1.54741 2.14112,-2.70971 3.21168,-4.06457c0.91303,-2.19046 1.96126,-4.32631 2.78829,-6.55067c1.02886,-2.76719 1.02191,-5.23345 2.31277,-8.05167c0.70318,-1.5352 2.01443,-2.72656 2.80212,-4.22016c1.32699,-2.5162 1.45974,-5.54717 2.77091,-8.07165c1.52419,-2.9346 4.20743,-5.18142 5.6373,-8.16311c0.75188,-1.56788 0.81006,-3.43424 1.6851,-4.93687c0.78356,-1.34553 2.35629,-2.0998 3.18154,-3.42016c0.89051,-1.42476 0.95029,-3.2771 1.87937,-4.677c0.42904,-0.64646 6.50876,-6.47383 7.19847,-7.26178c1.20957,-1.38185 1.91687,-3.23916 3.37688,-4.35313c1.4392,-1.09809 3.37582,-1.31319 5.02577,-2.058c6.58836,-2.97406 13.41647,-4.9128 20.04701,-7.76501c9.23062,-3.03402 18.94743,-3.08963 28.17528,-5.75985c1.66084,-0.48059 3.1315,-1.55388 4.82446,-1.90496c4.21786,-0.87468 8.96695,-0.49028 13.29754,-0.91004z"/></g></g></svg>